<svg xmlns="http://www.w3.org/2000/svg" viewBox="0 0 64 64">
  <!-- Bloodsworn: the crest (crossed swords over a shield) on a dark tile. -->
  <defs>
    <radialGradient id="glow" cx="50%" cy="55%" r="60%">
      <stop offset="0" stop-color="#3a1210"/>
      <stop offset="1" stop-color="#0b0706"/>
    </radialGradient>
    <linearGradient id="gold" x1="0" y1="0" x2="0" y2="1">
      <stop offset="0" stop-color="#f0d27a"/>
      <stop offset="1" stop-color="#b8892e"/>
    </linearGradient>
  </defs>
  <rect width="64" height="64" rx="14" fill="url(#glow)"/>
  <path d="M32 7 L53 14 V31 C53 44 43.5 52.5 32 57.5 C20.5 52.5 11 44 11 31 V14 Z" fill="#2a0808" stroke="url(#gold)" stroke-width="3.5" stroke-linejoin="round"/>
  <path d="M32 14 L46.5 19 V31 C46.5 40.5 40 46.5 32 50 C24 46.5 17.5 40.5 17.5 31 V19 Z" fill="#a52222"/>
  <g stroke="url(#gold)" stroke-width="4.5" stroke-linecap="round">
    <path d="M13 51 L49 11"/><path d="M51 51 L15 11"/>
  </g>
  <g stroke="url(#gold)" stroke-width="4" stroke-linecap="round">
    <path d="M9 45 L19 55"/><path d="M55 45 L45 55"/>
  </g>
</svg>
